# xmcd
# 
# Track frame offsets:
#     150
#     31048
#     56733
#     71110
# 
# Disc length: 1387
# 
# Revision: 0
# Processed by: cddbd v1.5.2PL0 Copyright (c) Steve Scherf et al.
# Submitted via: fre:ac v1.0.17
# 
DISCID=31056904
DTITLE=RIEN - 2
DYEAR=0
DGENRE=
TTITLE0=Autobahn Love
TTITLE1=Looters will be shot
TTITLE2=Intrastellar Drift (where the fuck is earth?!)
TTITLE3=La Chute de Satan
EXTD=
EXTT0=
EXTT1=
EXTT2=
EXTT3=
PLAYORDER=
